<svg width="107" height="106" viewBox="0 0 107 106" fill="none" xmlns="http://www.w3.org/2000/svg">
<path d="M48.0612 3.46297C49.771 -1.15433 56.3064 -1.15432 58.0162 3.46298L69.2142 33.703C69.7517 35.1546 70.8971 36.2992 72.3498 36.8363L102.612 48.0261C107.233 49.7347 107.233 56.2653 102.612 57.9739L72.3498 69.1637C70.8971 69.7008 69.7517 70.8454 69.2142 72.297L58.0162 102.537C56.3064 107.154 49.771 107.154 48.0612 102.537L36.8632 72.297C36.3257 70.8454 35.1803 69.7008 33.7276 69.1637L3.4655 57.9739C-1.15517 56.2653 -1.15517 49.7347 3.4655 48.0261L33.7276 36.8363C35.1803 36.2992 36.3257 35.1546 36.8632 33.703L48.0612 3.46297Z" fill="#FBE2E6"/>
</svg>
