<svg width="111" height="106" viewBox="0 0 111 106" fill="none" xmlns="http://www.w3.org/2000/svg">
<path d="M48.7046 4.24457C51.0439 -1.41486 59.0113 -1.41486 61.3506 4.24457L71.5347 28.8831C72.5209 31.269 74.7507 32.8992 77.3105 33.1056L103.745 35.2381C109.817 35.7279 112.279 43.3527 107.653 47.3403L87.5124 64.7002C85.5622 66.3812 84.7105 69.0189 85.3063 71.5324L91.4594 97.4889C92.8728 103.451 86.427 108.163 81.2286 104.968L58.5972 91.0589C56.4057 89.712 53.6495 89.712 51.458 91.0589L28.8266 104.968C23.6282 108.163 17.1825 103.451 18.5958 97.4889L24.749 71.5324C25.3448 69.0189 24.4931 66.3812 22.5428 64.7002L2.40271 47.3403C-2.22342 43.3527 0.238641 35.7279 6.31053 35.2381L32.7448 33.1056C35.3045 32.8992 37.5343 31.269 38.5205 28.8831L48.7046 4.24457Z" fill="#FBE2E6"/>
</svg>
